# xmcd CD database file
#
# Track frame offsets:
#	150
#	28432
#	81917
#	110950
#	146295
#	202250
#	231040
#	265115
#
# Disc length: 4061 seconds
#
# Revision: 0
# Processed by: cddbd v1.5.2PL0 Copyright (c) Steve Scherf et al.
# Submitted via: CDex 1.70beta2
#
DISCID=760fdb08
DTITLE=Uwe Werner and Mick Baumeister - oh brother
DYEAR=1995
DGENRE=Jazz
TTITLE0=drei schritte zum abgrund
TTITLE1=heiﬂ und kalt
TTITLE2=tango noir
TTITLE3=once again
TTITLE4=meine laura
TTITLE5=fahter's song
TTITLE6=song for all children
TTITLE7=ich bin klein
EXTD=YEAR: 1995
EXTT0=
EXTT1=
EXTT2=
EXTT3=
EXTT4=
EXTT5=
EXTT6=
EXTT7=
PLAYORDER=
